<svg width="24" height="24" viewBox="0 0 24 24" fill="none" xmlns="http://www.w3.org/2000/svg">
<g opacity="0.54">
<path fill-rule="evenodd" clip-rule="evenodd" d="M0.795568 0.830129C1.30898 0.302046 2.01142 0 2.75 0H9.75C10.0201 0 10.2787 0.109261 10.467 0.302922L15.717 5.70292C15.8985 5.88958 16 6.13966 16 6.4V17.2C16 17.9337 15.7169 18.6427 15.2044 19.1699C14.691 19.698 13.9886 20 13.25 20H2.75C2.01142 20 1.30898 19.698 0.795568 19.1699C0.283085 18.6427 0 17.9337 0 17.2V2.8C0 2.06634 0.283084 1.35726 0.795568 0.830129ZM2.75 2C2.56032 2 2.37252 2.07724 2.22956 2.22429C2.08566 2.37229 2 2.57888 2 2.8V17.2C2 17.4211 2.08566 17.6277 2.22956 17.7757C2.37252 17.9228 2.56032 18 2.75 18H13.25C13.4397 18 13.6275 17.9228 13.7704 17.7757C13.9143 17.6277 14 17.4211 14 17.2V6.80599L9.32751 2H2.75Z" transform="translate(4 2)" fill="black"/>
<path fill-rule="evenodd" clip-rule="evenodd" d="M1 0C1.55228 0 2 0.447715 2 1V5.4H6.25C6.80228 5.4 7.25 5.84772 7.25 6.4C7.25 6.95228 6.80228 7.4 6.25 7.4H1C0.447715 7.4 0 6.95228 0 6.4V1C0 0.447715 0.447715 0 1 0Z" transform="translate(12.75 2)" fill="black"/>
</g>
</svg>
